<svg width="99" height="110" viewBox="0 0 99 110" fill="none" xmlns="http://www.w3.org/2000/svg">
<path d="M99 92.5176C69.8266 114.881 29.135 114.702 0.161133 92.0831L21.397 82.1724C22.047 81.8664 22.6807 81.527 23.2954 81.1557L23.7842 80.8516C23.9587 80.743 24.1289 80.63 24.2991 80.5127C26.9783 78.6725 29.174 76.2183 30.7013 73.3567C32.447 70.0763 33.023 66.4526 33.0492 62.7595C33.0492 60.7304 32.9663 58.7014 32.9139 56.6767C32.9139 56.2219 32.9052 55.7657 32.8878 55.308C32.8703 53.9321 32.8558 52.5548 32.8441 51.176H32.8747L33.7082 51.6105L35.9776 52.7793L49.1965 55.0169L62.7777 57.3197L63.0876 67.7474L63.1748 70.7367V71.2016L63.38 78.0969L68.3856 80.126L72.3133 81.7075L99 92.5176Z" fill="#B1DAD3"/>
<path d="M63.0876 67.7523C62.1469 68.3936 61.0234 68.7151 59.8843 68.669C53.4341 67.9782 40.8392 62.9425 32.9227 53.6227C32.9227 53.168 32.9139 52.7118 32.8965 52.2541V51.1809L33.73 51.6154L35.9994 52.7842L49.2183 55.0218L62.7995 57.3246L63.0876 67.7523Z" fill="#18927F"/>
<path d="M24.5523 43.777C28.6497 43.777 31.9713 40.47 31.9713 36.3907C31.9713 32.3114 28.6497 29.0044 24.5523 29.0044C20.4549 29.0044 17.1333 32.3114 17.1333 36.3907C17.1333 40.47 20.4549 43.777 24.5523 43.777Z" fill="#18927F"/>
<path d="M72.3568 26.0761C77.4803 43.7511 66.5962 65.1235 59.9016 65.1235C50.7369 65.1235 28.4798 57.8328 23.3607 40.1578C18.2416 22.4829 25.0671 4.99912 38.5959 1.1148C52.1247 -2.76953 67.2333 8.39681 72.3568 26.0761Z" fill="#B1DAD3"/>
<path d="M47.0232 47.5481C49.1191 49.8807 51.9941 51.3767 55.1143 51.7583" stroke="#00214E"/>
<path d="M56.0222 27.9355C56.0004 28.0224 58.1126 31.6548 59.2124 35.5782C59.723 37.6769 59.9607 39.8322 59.9194 41.9912H54.0234" stroke="#00214E"/>
<path d="M61.438 24.2378C64.5212 22.6741 68.0871 22.3385 71.41 23.2994" stroke="#00214E"/>
<path d="M35.624 25.9673C39.876 23.8112 44.8714 23.6519 49.2532 25.5329" stroke="#00214E"/>
<path d="M43.2787 29.8171C45.9409 29.8389 45.9409 33.8926 43.2787 33.91H43.1609C40.4988 33.91 40.4988 29.8389 43.1609 29.8171H43.2787Z" fill="#00214E"/>
<path d="M65.1559 29.2134C67.6259 29.2134 67.6259 32.9934 65.1559 33.0108H65.0468C62.5723 33.0108 62.5723 29.2307 65.0468 29.2134H65.1559Z" fill="#00214E"/>
<path d="M99 92.5182C69.8266 114.882 29.135 114.703 0.161133 92.0837L21.397 82.173C22.4083 81.6997 23.379 81.1446 24.2991 80.5133C24.5785 80.3221 24.8578 80.1222 25.124 79.9137C27.4352 78.1531 29.3376 75.9167 30.7013 73.3573C31.7323 71.3907 32.4172 69.2628 32.7263 67.0659C33.0345 67.3632 33.3579 67.6446 33.6951 67.9088C36.3708 69.8803 39.2749 71.5244 42.3448 72.8055C43.8352 73.4244 45.3592 73.9597 46.9097 74.4087C51.5811 75.7649 56.4584 76.2784 61.3114 75.9251C61.9834 75.873 62.6599 75.8078 63.3319 75.76L63.3974 77.9672V78.1106L68.678 80.2482L99 92.5182Z" fill="#18927F"/>
</svg>
