<svg width="96" height="114" viewBox="0 0 96 114" fill="none" xmlns="http://www.w3.org/2000/svg">
<path fill-rule="evenodd" clip-rule="evenodd" d="M64.2904 6.3333C76.8031 14.461 79.2739 29.5862 79.4451 43.3776C79.5173 49.2081 79.4621 55.0133 79.407 60.8108C79.2997 72.0897 79.1927 83.3397 80.0252 94.6911C79.9668 93.8808 66.7737 91.932 65.267 91.8655C62.0993 91.7291 58.8229 92.0253 55.5835 92.3182C53.9871 92.4625 52.3996 92.606 50.8386 92.6966C48.1159 92.8661 45.3324 92.934 42.5336 93.0023C37.1679 93.1333 31.7462 93.2657 26.5894 94.1177C25.5895 94.2834 24.6027 94.4511 23.624 94.6174C18.4425 95.498 13.4875 96.34 8.00395 96.6441C7.57049 96.719 7.12451 96.6317 6.75184 96.3989C6.33447 96.0582 6.33447 95.4432 6.33447 94.9072C6.33447 88.4845 6.62346 82.0646 6.91222 75.6497C7.32011 66.5884 7.72756 57.5369 7.31946 48.501C6.95642 40.8138 8.23676 33.1373 11.0758 25.9794C13.5014 19.8068 17.3066 14.265 22.2029 9.77387C23.5321 8.57782 24.9589 7.49372 26.4684 6.53275C37.6831 -0.647569 52.9922 -1.00492 64.2904 6.3333ZM27.4953 37.4855L33.376 41.6408L52.3246 22.78L49.9414 21.2799C47.67 25.1124 44.5529 28.3805 40.826 30.8371C36.7101 33.652 32.2243 35.8891 27.4953 37.4855Z" fill="#00214E"/>
<path d="M95.3176 97.6869C67.4172 119.075 28.5013 118.903 0.791748 97.2714L21.1009 87.7932C21.7226 87.5005 22.3286 87.1759 22.9165 86.8208L23.384 86.53C23.5509 86.4261 23.7137 86.318 23.8765 86.2058C26.4387 84.446 28.5386 82.0988 29.9993 79.3621C31.6687 76.2249 32.2197 72.7594 32.2447 69.2274C32.2447 67.2869 32.1654 65.3463 32.1153 63.41C32.1153 62.9751 32.107 62.5388 32.0903 62.1011C32.0736 60.7852 32.0597 59.468 32.0485 58.1494H32.0778L32.8749 58.5649L35.0453 59.6827L47.6874 61.8227L60.6759 64.025L60.9723 73.9976L61.0557 76.8565V77.3011L61.2519 83.8955L66.0391 85.836L69.7954 87.3485L95.3176 97.6869Z" fill="#B1DAD3"/>
<path d="M60.9723 74.002C60.0727 74.6153 58.9982 74.9229 57.9088 74.8788C51.7401 74.2181 39.6948 69.4021 32.1237 60.4891C32.1237 60.0541 32.1153 59.6178 32.0986 59.1801V58.1538L32.8958 58.5693L35.0661 59.6871L47.7083 61.8271L60.6968 64.0294L60.9723 74.002Z" fill="#18927F"/>
<path d="M21.6143 51.9043C25.5329 51.9043 28.7096 48.7417 28.7096 44.8404C28.7096 40.939 25.5329 37.7764 21.6143 37.7764C17.6957 37.7764 14.519 40.939 14.519 44.8404C14.519 48.7417 17.6957 51.9043 21.6143 51.9043Z" fill="#B1DAD3"/>
<path d="M24.1185 51.073C28.0371 51.073 31.2138 47.9104 31.2138 44.009C31.2138 40.1077 28.0371 36.9451 24.1185 36.9451C20.1999 36.9451 17.0232 40.1077 17.0232 44.009C17.0232 47.9104 20.1999 51.073 24.1185 51.073Z" fill="#18927F"/>
<path d="M69.8374 34.1444C74.7373 51.0481 64.3281 71.4879 57.9257 71.4879C49.1609 71.4879 27.8751 64.5153 22.9793 47.6116C18.0836 30.708 24.6113 13.9871 37.5497 10.2723C50.4881 6.55748 64.9375 17.2366 69.8374 34.1444Z" fill="#B1DAD3"/>
<path d="M45.6086 54.6797C47.6131 56.9105 50.3627 58.3412 53.3467 58.7061" stroke="#00214E"/>
<path d="M54.215 35.9229C54.1941 36.006 56.2142 39.4797 57.266 43.2319C57.7544 45.239 57.9816 47.3004 57.9421 49.3652H52.3035" stroke="#00214E"/>
<path d="M59.3948 32.3866C62.3435 30.891 65.7537 30.5701 68.9317 31.489" stroke="#00214E"/>
<path d="M34.7073 34.0406C38.7737 31.9786 43.5511 31.8263 47.7417 33.6251" stroke="#00214E"/>
<path d="M42.028 37.7219C44.5739 37.7427 44.5739 41.6195 42.028 41.6362H41.9153C39.3694 41.6362 39.3694 37.7427 41.9153 37.7219H42.028Z" fill="#00214E"/>
<path d="M62.9505 37.1445C65.3128 37.1445 65.3128 40.7596 62.9505 40.7762H62.8461C60.4797 40.7762 60.4797 37.1612 62.8461 37.1445H62.9505Z" fill="#00214E"/>
<path d="M54.6323 5.8347C54.4382 7.79154 54.1218 9.73443 53.6849 11.6521C52.9382 15.0361 51.6712 18.285 49.9286 21.284C47.6572 25.1165 44.5401 28.3846 40.8132 30.8411C36.6973 33.6561 32.2115 35.8932 27.4824 37.4896C23.7373 38.7562 19.9076 39.7601 16.0215 40.4939C16.1509 37.3234 16.0215 33.4008 16.4138 29.7192C16.706 27.0765 17.2903 24.5542 18.4673 22.5223C21.6607 17.1458 26.319 12.7804 31.9024 9.9318L31.9525 9.90687C38.1254 6.7447 47.6873 3.62409 54.6323 5.8347Z" fill="#00214E"/>
<path d="M95.3176 97.6869C67.4172 119.075 28.5013 118.904 0.791748 97.2713L21.1009 87.7931C22.0681 87.3405 22.9964 86.8096 23.8765 86.2058C24.1436 86.023 24.4107 85.8319 24.6653 85.6324C26.8756 83.9486 28.695 81.8099 29.9993 79.3621C30.9853 77.4813 31.6403 75.4463 31.9359 73.3452C32.2306 73.6296 32.5399 73.8987 32.8624 74.1514C35.4213 76.0369 38.1987 77.6091 41.1347 78.8344C42.56 79.4263 44.0175 79.9382 45.5004 80.3677C49.9679 81.6646 54.6324 82.1557 59.2736 81.8179C59.9163 81.768 60.5632 81.7057 61.206 81.66L61.2686 83.7708V83.908L66.3188 85.9524L95.3176 97.6869Z" fill="#18927F"/>
<path d="M49.9203 21.3006C47.6489 25.1331 44.5318 28.4012 40.8049 30.8578C36.689 33.6727 32.2032 35.9098 27.4741 37.5062L16.4055 29.7358L11.0757 25.9961C13.5013 19.8235 17.3065 14.2816 22.2028 9.79046C23.5314 8.58866 24.9582 7.49899 26.4683 6.53271L31.8941 9.94837L49.9203 21.3006Z" fill="#012150"/>
</svg>
