<svg width="92" height="114" viewBox="0 0 92 114" fill="none" xmlns="http://www.w3.org/2000/svg">
<path d="M75.6019 37.7831C74.6235 40.6812 74.4658 44.6257 72.7476 47.1937C68.9675 52.8287 61.6337 53.7948 55.6664 55.8234C55.2724 55.897 54.8893 56.0201 54.5263 56.1897L52.416 56.8538C50.3864 57.4897 48.365 58.1338 46.3516 58.7858C43.554 59.6914 39.7092 60.2469 37.6958 62.5331C36.5358 63.8539 35.4558 65.2424 34.4615 66.691C34.2674 66.9768 34.0289 67.2907 33.6853 67.3189C33.467 67.3189 33.281 67.0331 33.099 66.9164C29.509 64.9924 26.869 62.352 24.6575 59.0032C17.9816 48.7416 15.2537 36.4245 16.976 24.3193C17.0003 24.1422 17.0245 23.9692 17.0528 23.7921C17.7316 19.8755 19.5248 16.235 22.2196 13.3028C24.9448 10.3567 28.1586 7.89918 31.7204 6.03757C33.8395 4.92206 36.0239 3.93415 38.2618 3.07916C43.1187 1.17036 48.2753 0.128049 53.4954 0C58.4531 0.004538 63.3624 0.971127 67.9487 2.84571C74.2637 5.36136 79.1596 10.0586 79.568 17.1668C79.9723 24.1744 77.8376 31.1579 75.6019 37.7831Z" fill="#012150"/>
<path d="M26.2384 55.4894C30.0342 55.4894 33.1113 52.4258 33.1113 48.6468C33.1113 44.8677 30.0342 41.8042 26.2384 41.8042C22.4426 41.8042 19.3655 44.8677 19.3655 48.6468C19.3655 52.4258 22.4426 55.4894 26.2384 55.4894Z" fill="#B1DAD3"/>
<path d="M28.6034 54.6844C32.1759 54.6844 35.072 51.801 35.072 48.2443C35.072 44.6875 32.1759 41.8042 28.6034 41.8042C25.0309 41.8042 22.1348 44.6875 22.1348 48.2443C22.1348 51.801 25.0309 54.6844 28.6034 54.6844Z" fill="#18927F"/>
<path d="M91.5632 98.2112C64.5373 118.928 26.8411 118.763 0 97.8087L19.6726 88.6275C20.6095 88.1891 21.5087 87.6748 22.3612 87.09L22.8099 86.776L23.1253 86.5345C25.2663 84.9035 27.0287 82.8318 28.2921 80.4607C29.9092 77.4218 30.4429 74.0649 30.4671 70.6436C30.4671 69.4884 30.4429 68.3332 30.4065 67.1781C30.3701 66.0229 30.3297 64.8838 30.3176 63.7326C30.3014 62.4553 30.2879 61.1794 30.2771 59.9048L31.021 60.2872L31.0776 60.3154L33.1799 61.3981L34.1543 61.5631L45.4258 63.471L49.8932 64.2277L58.0073 65.6083L58.3873 78.4884L58.545 83.8418L58.5733 84.7434V84.8762L63.4652 86.8565L63.7684 86.9813L91.5632 98.2112Z" fill="#B1DAD3"/>
<path d="M30.4067 64.6744L43.6917 77.0796C47.783 80.66 53.1174 82.5073 58.5574 82.2276L58.3997 76.8743L58.0196 63.9942L49.9056 62.6176C48.7978 63.1168 47.6901 63.6159 46.5823 64.0506C43.2672 65.3507 39.5194 64.8556 36.3053 63.5032C33.9105 62.4461 31.8371 60.7803 30.2935 58.6731L30.4067 64.6744Z" fill="#18927F"/>
<path d="M91.5632 98.2113C64.5373 118.928 26.8411 118.763 0 97.8088L19.6726 88.6277C20.6095 88.1892 21.5087 87.6749 22.3612 87.0901L22.8099 86.7761C32.6584 93.4617 45.7816 97.5069 57.1744 92.4112C59.8478 91.261 62.1356 89.3743 63.7684 86.9734L91.5632 98.2113Z" fill="#18927F"/>
<path d="M74.6034 52.0476C74.4329 54.9866 73.9574 57.9002 73.1843 60.7417C71.4419 67.5521 68.5552 74.286 67.12 76.8057C66.0446 78.6854 64.5447 79.0476 62.1715 79.6232C56.2181 80.9798 49.9667 79.6641 45.0742 76.0248L30.35 65.2055C30.1438 63.193 29.7961 61.0798 29.408 58.9264C28.2841 52.6715 26.8286 46.0463 27.4593 40.1939C27.6643 38.5299 28.4757 36.9988 29.7395 35.8911C33.1274 32.6952 39.4424 31.2462 43.3802 30.256C49.2909 28.7426 55.3633 27.841 61.1891 26.0579C65.4786 24.7296 70.1077 22.7091 72.679 18.8611C72.679 18.8611 73.1237 23.2122 73.2248 24.2064C73.439 26.2551 73.435 28.0342 73.6574 30.0548C73.877 32.2692 73.7405 34.5043 73.2531 36.676C72.9175 38.1773 72.5213 39.6746 72.2383 41.188C71.9674 42.6371 72.3515 42.6612 73.0994 43.6876C74.6357 45.7806 74.6964 49.5642 74.6034 52.0476Z" fill="#B1DAD3"/>
<path d="M47.5564 40.6528C50.0226 40.6528 50.0226 44.4283 47.5564 44.4484H47.4473C44.9811 44.4484 44.9811 40.673 47.4473 40.6528H47.5564Z" fill="#012150"/>
<path d="M67.8237 40.0896C70.112 40.1097 70.112 43.5914 67.8237 43.6115H67.7226C65.4303 43.6115 65.4303 40.1097 67.7226 40.0896H67.8237Z" fill="#012150"/>
<path d="M60.429 42.2629C60.4088 42.3434 62.3655 45.7083 63.3843 49.3429C63.8571 51.2858 64.0772 53.2811 64.0393 55.2798H58.5774" stroke="#012150"/>
<path d="M73.2045 60.7419C71.462 67.5523 68.5754 74.2862 67.1401 76.8059C66.0647 78.6856 64.5648 79.0478 62.1917 79.6234C56.2383 80.98 49.9869 79.6643 45.0943 76.025L30.3499 65.2057C30.1073 62.8349 29.2381 60.5648 28.7327 58.2303C28.5144 57.1757 28.3284 56.0729 28.5872 55.0103C28.6579 55.5694 28.8992 56.0934 29.2785 56.5116C31.1868 59.0957 33.4184 62.0138 36.5961 63.0764C39.9113 64.1833 43.6874 64.3564 46.8853 62.7947C49.6708 61.4342 52.3998 59.6592 55.3066 58.5402C57.24 57.7455 59.3262 57.3867 61.4154 57.4897C64.3829 57.6909 65.6523 59.0232 67.8233 60.7822C68.5348 61.3618 69.3314 61.9655 70.2491 61.9696C71.3003 61.9857 72.311 61.4061 73.2045 60.7419Z" fill="#012150"/>
<path d="M54.3525 62.9194C57.1343 63.7788 60.1346 63.6058 62.7981 62.4324" stroke="#B1DAD3"/>
<path d="M41.4639 37.4327C45.2063 36.6601 49.0562 36.5511 52.8366 37.1107" stroke="#012150"/>
<path d="M65.3369 37.4854C67.6494 36.9537 70.0317 36.7893 72.3957 36.9983" stroke="#012150"/>
<path d="M53.9967 53.2676C53.3933 53.5751 53.1051 54.2747 53.318 54.9155C53.5308 55.5563 54.1811 55.9469 54.8498 55.8355" stroke="#012150"/>
<path d="M29.0037 58.9428L29.408 58.9187L29.6749 59.2326L30.5441 64.7953L30.35 64.8677L30.0589 64.4692L29.0037 58.9428Z" fill="#012150"/>
</svg>
